<?xml version="1.0" encoding="utf-8"?>
<!-- Generator: Adobe Illustrator 24.3.0, SVG Export Plug-In . SVG Version: 6.00 Build 0)  -->
<svg version="1.1" id="Layer_1" focusable="false" xmlns="http://www.w3.org/2000/svg" xmlns:xlink="http://www.w3.org/1999/xlink"
	 x="0px" y="0px" viewBox="0 0 512 512" style="enable-background:new 0 0 512 512;" xml:space="preserve">
<style type="text/css">
	.st0{fill:#F4D4EE;}
</style>
<path class="st0" d="M48,352c-26.5,0-48,21.5-48,48s21.5,48,48,48s48-21.5,48-48S74.5,352,48,352z M464,352c-26.5,0-48,21.5-48,48
	s21.5,48,48,48s48-21.5,48-48S490.5,352,464,352z M345,363.1c4.6-14.5,1.6-30.8-9.8-42.3c-11.5-11.5-27.8-14.4-42.3-9.9
	c-7-13.5-20.7-23-36.9-23s-29.9,9.5-36.9,23c-14.5-4.6-30.8-1.6-42.3,9.9s-14.4,27.8-9.9,42.3c-13.5,7-23,20.7-23,36.9
	s9.5,29.9,23,36.9c-4.6,14.5-1.6,30.8,9.9,42.3c8.2,8.2,18.9,12.3,29.7,12.3c4.3,0,8.5-1.1,12.6-2.5c7,13.5,20.7,23,36.9,23
	s29.9-9.5,36.9-23c4.1,1.3,8.3,2.5,12.6,2.5c10.8,0,21.5-4.1,29.7-12.3c11.5-11.5,14.4-27.8,9.8-42.3c13.5-7,23-20.7,23-36.9
	S358.5,370.1,345,363.1L345,363.1z M512,224c0-53-43-96-96-96c-0.6,0-1.1,0.2-1.6,0.2c1.1-5.2,1.6-10.6,1.6-16.2
	c0-44.2-35.8-80-80-80c-24.6,0-46.3,11.3-61,28.8C256.4,24.8,219.3,0,176,0C114.1,0,64,50.1,64,112c0,7.3,0.8,14.3,2.1,21.2
	C27.8,145.8,0,181.5,0,224c0,53,43,96,96,96h43.4c3.6-8,8.4-15.4,14.8-21.8c13.5-13.5,31.5-21.1,50.8-21.3
	c13.5-13.2,31.7-20.9,51-20.9s37.5,7.7,51,20.9c19.3,0.2,37.3,7.8,50.8,21.3c6.4,6.4,11.3,13.8,14.8,21.8H416
	C469,320,512,277,512,224z"/>
</svg>
