<?xml version="1.0" encoding="utf-8"?>
<!-- Generator: Adobe Illustrator 24.3.0, SVG Export Plug-In . SVG Version: 6.00 Build 0)  -->
<svg version="1.1" id="Layer_1" focusable="false" xmlns="http://www.w3.org/2000/svg" xmlns:xlink="http://www.w3.org/1999/xlink"
	 x="0px" y="0px" viewBox="0 0 576 512" style="enable-background:new 0 0 576 512;" xml:space="preserve">
<style type="text/css">
	.st0{fill:#F4D4EE;}
</style>
<path class="st0" d="M342.8,352.7c5.7-9.6,9.2-20.7,9.2-32.7c0-35.3-28.7-64-64-64c-17.2,0-32.8,6.9-44.3,17.9
	C227.4,244.3,196.2,224,160,224c-53,0-96,43-96,96c0,2,0.5,3.8,0.6,5.7C27.1,338.8,0,374.1,0,416c0,53,43,96,96,96h240
	c44.2,0,80-35.8,80-80C416,390.1,383.7,356.2,342.8,352.7z M565.3,298.4c-93.1,17.7-178.5-53.7-178.5-147.7
	c0-54.2,29-104,76.1-130.8c7.3-4.1,5.4-15.1-2.8-16.7C448.4,1.1,436.7,0,425,0C319.1,0,233.1,85.9,233.1,192c0,8.5,0.7,16.8,1.8,25
	c5.9,4.3,11.6,8.9,16.7,14.2c11.4-4.7,23.7-7.2,36.4-7.2c52.9,0,96,43.1,96,96c0,3.6-0.2,7.2-0.6,10.7
	c23.6,10.8,42.4,29.5,53.5,52.6c54.4-3.4,103.7-29.3,137.1-70.4C579.3,306.4,573.5,296.8,565.3,298.4z"/>
</svg>
