<?xml version="1.0" encoding="utf-8"?>
<!-- Generator: Adobe Illustrator 24.3.0, SVG Export Plug-In . SVG Version: 6.00 Build 0)  -->
<svg version="1.1" id="Layer_1" focusable="false" xmlns="http://www.w3.org/2000/svg" xmlns:xlink="http://www.w3.org/1999/xlink"
	 x="0px" y="0px" viewBox="0 0 640 512" style="enable-background:new 0 0 640 512;" xml:space="preserve">
<style type="text/css">
	.st0{fill:#F4D4EE;}
</style>
<path class="st0" d="M575.2,325.7c0.2-1.9,0.8-3.7,0.8-5.6c0-35.3-28.7-64-64-64c-12.6,0-24.2,3.8-34.1,10
	c-17.6-38.8-56.5-66-101.9-66c-61.8,0-112,50.1-112,112c0,3,0.7,5.8,0.9,8.7c-49.6,3.7-88.9,44.7-88.9,95.3c0,53,43,96,96,96h272
	c53,0,96-43,96-96C640,374,612.8,338.7,575.2,325.7L575.2,325.7z M144.8,303.1c-43.7-43.7-43.7-114.7,0-158.3
	c43.7-43.7,114.7-43.7,158.4,0c9.7,9.7,16.9,20.9,22.3,32.7c9.8-3.7,20.1-6,30.7-7.5L386,81.1c4-11.9-7.3-23.1-19.2-19.2L279,91.2
	L237.5,8.4C232-2.8,216-2.8,210.4,8.4L169,91.2L81.1,61.9C69.3,58,58,69.3,61.9,81.1l29.3,87.8L8.4,210.4
	c-11.2,5.6-11.2,21.5,0,27.1l82.8,41.4l-29.3,87.8c-4,11.9,7.3,23.1,19.2,19.2l76.1-25.3c6.1-12.4,14-23.7,23.6-33.5
	C167.7,321.7,155.4,313.7,144.8,303.1L144.8,303.1z M140,223.9c0,40.8,29.3,74.8,67.9,82.3c8-4.7,16.3-8.8,25.2-11.7
	c5.4-44.3,31-82.5,67.4-105C287.3,160.4,258,140,224,140C177.7,140,140,177.6,140,223.9L140,223.9z"/>
</svg>
