<?xml version="1.0" encoding="utf-8"?>
<!-- Generator: Adobe Illustrator 24.3.0, SVG Export Plug-In . SVG Version: 6.00 Build 0)  -->
<svg version="1.1" id="Layer_1" focusable="false" xmlns="http://www.w3.org/2000/svg" xmlns:xlink="http://www.w3.org/1999/xlink"
	 x="0px" y="0px" viewBox="0 0 640 512" style="enable-background:new 0 0 640 512;" xml:space="preserve">
<style type="text/css">
	.st0{fill:#F4D4EE;}
</style>
<path class="st0" d="M624,368H80c-8.8,0-16,7.2-16,16v16c0,8.8,7.2,16,16,16h544c8.8,0,16-7.2,16-16v-16
	C640,375.2,632.8,368,624,368z M144,464H16c-8.8,0-16,7.2-16,16v16c0,8.8,7.2,16,16,16h128c8.8,0,16-7.2,16-16v-16
	C160,471.2,152.8,464,144,464z M560,464H224c-8.8,0-16,7.2-16,16v16c0,8.8,7.2,16,16,16h336c8.8,0,16-7.2,16-16v-16
	C576,471.2,568.8,464,560,464z M144,288h156.1c22.5,19.7,51.6,32,83.9,32s61.3-12.3,83.9-32H528c61.9,0,112-50.1,112-112
	S589.9,64,528,64c-18,0-34.7,4.6-49.7,12.1C454,31,406.8,0,352,0c-41,0-77.8,17.3-104,44.8C221.8,17.3,185,0,144,0
	C64.5,0,0,64.5,0,144S64.5,288,144,288z"/>
</svg>
