<?xml version="1.0" encoding="utf-8"?>
<!-- Generator: Adobe Illustrator 24.3.0, SVG Export Plug-In . SVG Version: 6.00 Build 0)  -->
<svg version="1.1" id="Layer_1" focusable="false" xmlns="http://www.w3.org/2000/svg" xmlns:xlink="http://www.w3.org/1999/xlink"
	 x="0px" y="0px" viewBox="0 0 512 512" style="enable-background:new 0 0 512 512;" xml:space="preserve">
<style type="text/css">
	.st0{fill:#F4D4EE;}
</style>
<path class="st0" d="M494.2,221.9l-59.8-40.5l13.7-71c2.6-13.2-1.6-26.8-11.1-36.4c-9.6-9.5-23.2-13.7-36.2-11.1l-70.9,13.7
	l-40.4-59.9c-15.1-22.3-51.9-22.3-67,0l-40.4,59.9l-70.8-13.7C98,60.4,84.5,64.5,75,74.1s-13.7,23.1-11.1,36.3l13.7,71l-59.8,40.5
	C6.6,229.5,0,242,0,255.5s6.7,26,17.8,33.5l59.8,40.5l-13.7,71c-2.6,13.2,1.6,26.8,11.1,36.3s22.9,13.7,36.3,11.1l70.8-13.7
	l40.4,59.9C230,505.3,242.6,512,256,512s26-6.7,33.5-17.8l40.4-59.9l70.9,13.7c13.4,2.7,26.8-1.6,36.3-11.1s13.6-23.1,11.1-36.3
	l-13.7-71l59.8-40.5c11.1-7.5,17.8-20.1,17.8-33.5C512,242,505.4,229.5,494.2,221.9L494.2,221.9z M381.3,307.5l17.6,91.2l-91-17.6
	L256,458l-51.9-77l-90.9,17.6l17.6-91.2l-76.8-52l76.8-52l-17.6-91.2l91,17.6L256,53l51.9,76.9l91-17.6l-17.6,91.1l76.8,52
	L381.3,307.5L381.3,307.5z M256,152c-57.3,0-104,46.7-104,104s46.7,104,104,104s104-46.7,104-104S313.3,152,256,152z M256,312
	c-30.9,0-56-25.1-56-56s25.1-56,56-56s56,25.1,56,56S286.9,312,256,312z"/>
</svg>
